<svg xmlns="http://www.w3.org/2000/svg" width="99" height="26" fill="none"><path d="M41.32 20V6h6.08c.88 0 1.647.153 2.3.46a3.55 3.55 0 0 1 1.52 1.3c.36.56.54 1.22.54 1.98v.24c0 .84-.2 1.52-.6 2.04s-.893.9-1.48 1.14v.36c.533.027.947.213 1.24.56.293.333.44.78.44 1.34V20h-2.64v-4.2c0-.32-.087-.58-.26-.78-.16-.2-.433-.3-.82-.3h-3.68V20h-2.64zm2.64-7.68h3.16c.627 0 1.113-.167 1.46-.5.36-.347.54-.8.54-1.36v-.2c0-.56-.173-1.007-.52-1.34-.347-.347-.84-.52-1.48-.52h-3.16v3.92zm14.597 7.96c-.987 0-1.86-.207-2.62-.62a4.61 4.61 0 0 1-1.76-1.78c-.413-.773-.62-1.68-.62-2.72v-.24c0-1.04.207-1.94.62-2.7.413-.773.993-1.367 1.74-1.78.747-.427 1.613-.64 2.6-.64.973 0 1.82.22 2.54.66.72.427 1.28 1.027 1.68 1.8.4.76.6 1.647.6 2.66v.86h-7.22c.027.68.28 1.233.76 1.66s1.067.64 1.76.64c.707 0 1.227-.153 1.56-.46s.587-.647.76-1.02l2.06 1.08c-.187.347-.46.727-.82 1.14-.347.4-.813.747-1.4 1.04-.587.28-1.333.42-2.24.42zm-2.42-6.38h4.64c-.053-.573-.287-1.033-.7-1.38-.4-.347-.927-.52-1.58-.52-.68 0-1.22.173-1.62.52s-.647.807-.74 1.38zM65.58 20v-9.92h2.48v1.08h.36c.173-.333.46-.62.86-.86.4-.253.927-.38 1.58-.38.707 0 1.273.14 1.7.42.427.267.753.62.98 1.06h.36c.227-.427.547-.78.96-1.06s1-.42 1.76-.42c.613 0 1.167.133 1.66.4.507.253.907.647 1.2 1.18.307.52.46 1.18.46 1.98V20h-2.52v-6.34c0-.547-.14-.953-.42-1.22-.28-.28-.673-.42-1.18-.42-.573 0-1.02.187-1.34.56-.307.36-.46.88-.46 1.56V20H71.5v-6.34c0-.547-.14-.953-.42-1.22-.28-.28-.673-.42-1.18-.42-.573 0-1.02.187-1.34.56-.307.36-.46.88-.46 1.56V20h-2.52zm17.07 0v-9.92h2.52V20h-2.52zm1.26-11.08c-.453 0-.84-.147-1.16-.44-.307-.293-.46-.68-.46-1.16s.153-.867.46-1.16c.32-.293.707-.44 1.16-.44.467 0 .853.147 1.16.44s.46.68.46 1.16-.153.867-.46 1.16-.693.44-1.16.44zM87.083 20l3.6-5-3.56-4.92h2.92l2.26 3.3h.36l2.26-3.3h2.92L94.283 15l3.6 5h-2.96l-2.26-3.34h-.36L90.043 20h-2.96z" fill="#fff"/><path fill-rule="evenodd" d="M11.917 12.019c0-.507-.41-.918-.916-.918a.92.92 0 0 0-.917.918.92.92 0 0 0 .917.918c.506 0 .916-.411.916-.918zm1.751 0c0 1.473-1.196 2.671-2.667 2.671s-2.667-1.198-2.667-2.671 1.197-2.671 2.667-2.671 2.667 1.198 2.667 2.671zm5.125-2.679a8.27 8.27 0 0 0-5.117-5.113l-.118.936a7.36 7.36 0 0 1 4.299 4.293l.936-.116zm-1.858.232c-.652-1.58-1.913-2.843-3.491-3.494l-.12.955a5.54 5.54 0 0 1 2.656 2.659l.955-.12zm-2.267 2.447c0-2.028-1.643-3.673-3.667-3.673a3.67 3.67 0 1 0 0 7.346c2.024 0 3.667-1.645 3.667-3.673zm-5.991 4.987a5.54 5.54 0 0 1-2.654-2.66l-.954.119c.65 1.582 1.911 2.844 3.49 3.496l.118-.955zm-.238 1.906c-1.989-.747-3.569-2.332-4.308-4.329l-.935.118c.822 2.412 2.721 4.318 5.126 5.147l.117-.936zM22 12.019c0 .264-.022.521-.04.78a1.9 1.9 0 0 0-.894-.021c-.295-.486-.85-.799-1.503-.799-.685 0-1.27.351-1.548.885-.946-.17-2.098.418-2.098 1.593v2.761c-.687-.72-2.916-.376-2.916 1.41a1.97 1.97 0 0 0 .185.82c.066.158 1.393 2.805 1.467 2.955a10.94 10.94 0 0 1-3.652.635C4.926 23.038 0 18.105 0 12.019S4.926 1 11 1s11 4.934 11 11.019zm-6.302 6.286a290.53 290.53 0 0 1 .872 1.607c.124.228.494.179.494-.12v-5.335c0-.839 1.348-.814 1.348 0v4.311c0 .234.453.23.453 0l.002-5.131c0-.441.355-.656.714-.656s.729.221.729.656v5.072c0 .235.437.244.437.006v-4.323c0-.862 1.475-.886 1.475 0v4.579c0 .233.472.234.472 0v-2.849c0-.778 1.304-.822 1.304.039L24 22.66c0 1.489-.831 2.34-2.406 2.34h-2.935c-1.497 0-2.022-.846-2.438-1.696l-2.125-4.272a.97.97 0 0 1-.095-.404c0-.809 1.276-1.128 1.697-.323z" fill="#f7ca18"/></svg>